<svg xmlns="http://www.w3.org/2000/svg" width="28" height="28" fill="none"><g clip-path="url(#a)"><path fill="url(#b)" d="M17.066 10.838c1.048 1.05 3.028.764 4.424-.634s1.68-3.381.634-4.43c-1.049-1.05-3.028-.766-4.424.632-1.397 1.4-1.68 3.383-.634 4.432"/><path fill="url(#c)" d="M27.67 5.796c-.636 2.684-2.335 6.345-6.37 10.881l-.42 4.214a4.48 4.48 0 0 1-1.282 2.67l-4.168 4.176a.893.893 0 0 1-1.517-.76l.472-3.322c.07-.49-.023-1.038-.23-1.673q-.195-.585-.435-1.15l-.143-.354c-1.427-.344-2.762-1.158-3.835-2.234-1.074-1.077-1.888-2.414-2.23-3.842l-.356-.145q-.566-.237-1.146-.434c-.636-.208-1.182-.3-1.672-.23l-3.318.472a.893.893 0 0 1-.757-1.518L4.43 8.372a4.47 4.47 0 0 1 2.667-1.285h.01l4.2-.416c4.45-3.959 8.094-5.653 10.782-6.307 1.558-.38 2.783-.406 3.64-.33.427.041.762.106.998.164q.174.045.28.078c.322.105.488.228.614.517l.05.127q.206.617.276 1.262c.096.849.089 2.062-.279 3.614m-8.45 13.081.07-.07-.187 1.892a2.7 2.7 0 0 1-.77 1.598l-2.271 2.275.094-.665c.126-.886-.06-1.738-.3-2.482a16 16 0 0 0-.288-.787c1.292-.114 2.559-.665 3.652-1.76M9.11 8.75c-1.094 1.095-1.645 2.364-1.757 3.657q-.39-.153-.788-.287c-.742-.241-1.592-.427-2.478-.3l-.665.094 2.275-2.275c.43-.43.99-.702 1.593-.77l1.89-.187zm16.46-6.932c-.665-.06-1.692-.047-3.055.285-2.727.665-6.855 2.618-12.14 7.912-1.085 1.085-1.398 2.345-1.202 3.59.187 1.182.845 2.383 1.834 3.373.987.99 2.187 1.647 3.367 1.836 1.242.196 2.5-.117 3.584-1.204 5.388-5.395 7.336-9.527 7.973-12.227.32-1.35.315-2.354.241-2.998a5 5 0 0 0-.078-.495 5 5 0 0 0-.525-.072z"/><path fill="url(#d)" d="M12.266 21.244a13.3 13.3 0 0 1-3.157-2.366 13.3 13.3 0 0 1-2.469-3.372c-1.928 1.736-3.439 8.844-3.218 9.065.219.22 6.888-1.568 8.844-3.329z"/></g><defs><linearGradient id="b" x1="19.595" x2="19.595" y1="5.141" y2="11.471" gradientUnits="userSpaceOnUse"><stop stop-color="#1C98CB"/><stop offset="1" stop-color="#1B1464"/></linearGradient><linearGradient id="c" x1="13.999" x2="13.999" y1="0" y2="28.002" gradientUnits="userSpaceOnUse"><stop stop-color="#1C98CB"/><stop offset="1" stop-color="#1B1464"/></linearGradient><linearGradient id="d" x1="7.833" x2="7.833" y1="15.506" y2="24.589" gradientUnits="userSpaceOnUse"><stop stop-color="#1C98CB"/><stop offset="1" stop-color="#1B1464"/></linearGradient><clipPath id="a"><path fill="#fff" d="M0 0h28v28H0z"/></clipPath></defs></svg>