<svg xmlns="http://www.w3.org/2000/svg" width="19" height="22" fill="none"><g clip-path="url(#a)"><path fill="url(#b)" d="M6.107 6.188V8.25h6.786V6.188c0-1.9-1.518-3.438-3.393-3.438S6.107 4.288 6.107 6.188M3.393 8.25V6.188C3.393 2.77 6.128 0 9.5 0s6.107 2.771 6.107 6.188V8.25h.679C17.783 8.25 19 9.483 19 11v8.25c0 1.517-1.217 2.75-2.714 2.75H2.714C1.217 22 0 20.767 0 19.25V11c0-1.517 1.217-2.75 2.714-2.75z"/></g><defs><linearGradient id="b" x1="0" x2="19.076" y1="0" y2="21.934" gradientUnits="userSpaceOnUse"><stop stop-color="#1C98CB"/><stop offset="1" stop-color="#1B1464"/></linearGradient><clipPath id="a"><path fill="#fff" d="M0 0h19v22H0z"/></clipPath></defs></svg>