<svg xmlns="http://www.w3.org/2000/svg" width="30" height="30" fill="none"><path fill="url(#a)" d="M15 2.5A12.5 12.5 0 1 0 27.5 15c0-1.45-.262-2.887-.762-4.238l-2 2C24.913 13.5 25 14.25 25 15A10 10 0 1 1 15 5c.75 0 1.5.088 2.238.263L19.25 3.25c-1.363-.487-2.8-.75-4.25-.75m8.75 0-5 5v1.875l-3.187 3.188c-.188-.063-.376-.063-.563-.063a2.5 2.5 0 1 0 2.5 2.5c0-.187 0-.375-.062-.562l3.187-3.188H22.5l5-5h-3.75zM15 7.5a7.5 7.5 0 1 0 7.5 7.5H20a5 5 0 1 1-5-5z"/><defs><linearGradient id="a" x1="2" x2="28" y1="3" y2="28" gradientUnits="userSpaceOnUse"><stop stop-color="#1C98CB"/><stop offset="1" stop-color="#1B1464"/></linearGradient></defs></svg>