<svg xmlns="http://www.w3.org/2000/svg" width="24" height="24" fill="none"><path fill="#424242" d="M12 23.25c1.252 0 2.267-.599 2.267-1.337S13.252 20.576 12 20.576s-2.267.599-2.267 1.337S10.748 23.25 12 23.25"/><path fill="#FFD600" d="M12 .75c-3.953 0-7.16 2.938-7.16 6.56 0 .946.286 1.956.704 2.847.587 1.252 1.226 2.179 1.414 2.52.521.949.446 1.948.59 2.574.272 1.17 1.086 1.594 4.45 1.594s4.087-.403 4.39-1.481c.205-.733.005-1.534.524-2.48.188-.342.95-1.473 1.54-2.727.418-.89.703-1.901.703-2.846C19.158 3.688 15.952.75 12 .75"/><path fill="#B26500" d="M12 16.985c2.272 0 4.114-.374 4.114-.836s-1.842-.837-4.113-.837-4.114.375-4.114.837 1.842.836 4.114.836"/><path fill="#B26500" d="M12 16.985c2.272 0 4.114-.374 4.114-.836s-1.842-.837-4.113-.837-4.114.375-4.114.837 1.842.836 4.114.836"/><path fill="#FFA000" d="M12 16.536c1.656 0 2.998-.173 2.998-.386s-1.342-.386-2.998-.386-2.998.173-2.998.386 1.342.386 2.998.386"/><path stroke="#B26500" stroke-miterlimit="10" stroke-width=".25" d="M9.994 10.644c-.117.293-.418.894-.261 1.164.366.629 1.237.854 1.237 1.431 0 .881-.64 3.737-.64 3.737m3.55-6.437s.42.9.242 1.303c-.133.3-.933.784-1.037.865-.478.375.158 4.27.158 4.27"/><path stroke="#fff" stroke-miterlimit="10" stroke-width=".25" d="M9.994 10.644c.645-1.275.977-4.185.157-4.037-1.381.25.321 5.03 1.16 4.482.837-.55 1.876-4.472.601-4.487s.086 4.998.952 4.442c.685-.441 2.355-4.437.983-4.437-1.168 0 .036 3.932.036 3.932"/><path fill="#82AEC0" d="M16.104 16.324s-1.08.521-4.104.521-4.105-.52-4.105-.52-.067.963.156 1.4c.268.525.474.707.474.707l.113.534-.045.14a.55.55 0 0 0 .112.531l.098.11.109.513-.038.103a.55.55 0 0 0 .124.566l.071.073.088.42s.446.953 2.843.953 2.842-.953 2.842-.953l.008-.035.049-.049a.35.35 0 0 0 .082-.366l-.028-.073.116-.555.204-.215a.35.35 0 0 0 .059-.396l-.094-.186.118-.556.075-.059c.11-.121.113-.305.064-.43a.27.27 0 0 1 .07-.286c.117-.112.27-.283.382-.495.23-.43.157-1.397.157-1.397"/><path fill="#2F7889" d="m8.525 18.432.102.538c1.09-.006 2.548.049 5.343-.396.505-.114 1.11-.34.441-.247 0-.002-2.567.244-5.886.105m.375 1.832c1.208-.02 3.675-.14 6.327-.716l.118-.557c-2.773.63-5.381.742-6.553.757zm6.158.079c-2.454.532-4.751.669-5.994.699l.08.382s.04 1.187 2.843 1.187 2.842-1.187 2.842-1.187-1.196.342-2.668.175a.117.117 0 0 1-.119-.117.12.12 0 0 1 .117-.12c.88-.116 1.93-.288 2.783-.464z"/><path stroke="#82AEC0" stroke-linecap="round" stroke-miterlimit="10" stroke-width=".5" d="M7.91 16.324s1.21.521 4.08.521c2.868 0 4.102-.52 4.102-.52"/><path fill="#FFFF8D" d="M9.352 1.935c.733-.18 1.5-.09 2.025.548.148.18.263.393.289.626.052.448-.225.872-.555 1.183-.941.889-2.278 1.32-2.886 2.546-.142.287-.255.597-.472.831-.218.234-.58.377-.863.227-.15-.079-.253-.227-.337-.375-.533-.949-.493-2.158-.025-3.14.516-1.077 1.647-2.157 2.824-2.446"/><path fill="#FFD600" d="M8.709 17.237c-.165-.075-.1-.323.08-.31a39 39 0 0 0 2.991.105c1.433 0 2.693-.107 3.428-.185.182-.019.251.23.084.307-.566.267-1.603.57-3.38.57-1.735 0-2.691-.257-3.203-.487"/><path fill="#94D1E0" d="M9.739 19.13c-.126.045-.255.107-.32.223a.22.22 0 0 0-.025.14c.015.072.08.123.146.154.131.064.28.081.424.083.298.004.594-.053.888-.109.089-.017.179-.034.257-.077.08-.043.147-.116.16-.204.018-.118-.066-.233-.17-.289-.355-.197-1-.05-1.36.079m.28 1.236c-.127.044-.256.106-.32.223a.22.22 0 0 0-.026.14c.015.072.08.122.146.154.132.064.28.08.424.082.298.004.594-.052.889-.108.088-.017.178-.034.257-.077.078-.043.146-.116.16-.204.018-.119-.067-.233-.17-.29-.356-.194-1.003-.048-1.36.08"/><path fill="#FFFF8D" d="M9.377 15.787c.17.017.35.002.495-.09.144-.092.236-.28.178-.44a.6.6 0 0 0-.16-.216l-.42-.416a7 7 0 0 0-.48-.45c-.26-.218-.61-.422-.954-.263-.292.135-.362.401-.232.68.275.588.916 1.128 1.573 1.195"/></svg>