<svg xmlns="http://www.w3.org/2000/svg" width="24" height="24" fill="none"><path fill="#C8C8C8" d="M1.362 6.03s-.67-1.058-.8-1.342c-.17-.363.016-.451.646-.455.403-.002 4.275 0 4.275 0h3.502s-.026-1.26 0-1.328c.027-.065 5.92-.013 5.946 0s.013 1.328.013 1.328h8.072c.186 0 .379.17.216.495s-.617.95-.617.95l-.05 16.431-1.304.728-18.894-.075-1.003-.576z"/><path fill="#E1E1E1" d="M5.43 22.373V5.59l6.176-.942 6.814.996v16.729l-6.398.332z"/><path fill="#9A9A9A" d="m5.432 4.232 12.997.002-.009 1.41L5.43 5.59zM1.363 22.187l7.498-.05s-.009-5.796 0-6.028c.006-.17.047-.308.263-.323s5.216-.015 5.402-.015c.184 0 .322.107.322.37v5.986s7.72-.07 7.716-.013c-.006.058.01.859.01.968 0 .107-.048.262-.34.262H1.613c-.124 0-.246-.123-.246-.277z"/><path fill="#6CA4AB" d="M10.262 6.174h3.367V8.17h-3.367zm-.017 3.24h3.4v1.917h-3.4zm-.032 3.242h3.433v2.059h-3.433zm5.11-6.418c-.018.049 0 1.98 0 1.98l2.054-.006s.028-1.95-.011-1.989c-.04-.04-2.029-.034-2.044.015m.031 3.113.015 1.963 1.948-.015.032-1.917zm.096 3.32s-.05 1.9-.017 1.948c.032.05 1.884.05 1.948 0 .064-.048 0-1.93 0-1.93zm.01 3.17.014 1.975s1.84.043 1.883 0 .086-1.931.028-1.974-1.926 0-1.926 0m.052 3.217.026 1.96s1.813.016 1.852-.012c.04-.029.042-1.877.015-1.933-.026-.057-1.893-.015-1.893-.015m4.078 1.93c.022.029 1.955.029 1.955.029s.06-1.931-.01-1.96c-.05-.022-1.962-.05-1.988-.028-.06.055.026 1.94.043 1.96m-.028-5.049c-.03.075-.057 1.975-.015 1.99s1.89.028 1.946 0 .1-1.918.043-1.961c-.056-.044-1.946-.098-1.974-.029m-.042-1.254c.05.064 1.875.056 1.932.028s.028-1.862-.015-1.931c-.044-.07-1.875-.028-1.919.015-.043.043-.054 1.817.002 1.888m.057-5.162c-.036.071 0 1.834.028 1.89s1.862.056 1.89.015c.028-.043.043-1.847.015-1.89-.03-.043-1.905-.071-1.933-.015m.04-1.326c.051.051 1.89.015 1.932 0s.028-1.875.015-1.946c-.015-.071-1.903-.028-1.961 0-.055.028-.055 1.875.015 1.946M6.348 6.17c-.017.048 0 1.98 0 1.98l2.043-.032s.04-1.924 0-1.963c-.04-.042-2.027-.034-2.043.015m.046 3.238s-.05 1.914.014 1.946c.063.032 1.893.049 1.957 0s.011-1.965.011-1.965zm.032 3.268c-.035.026-.048 1.9-.017 1.948.032.049 1.885.049 1.949 0 .063-.049.048-1.884 0-1.931-.05-.047-1.868-.064-1.932-.017m-.063 3.195c-.051.05-.029 1.931.015 1.974.043.043 1.882 0 1.882 0l.028-1.974s-1.87-.056-1.925 0m.01 3.137v1.978l1.842-.017.041-1.946zm-3.961 1.961 1.931-.015.013-1.965s-1.946-.05-1.987.02.043 1.96.043 1.96m-.028-5.05c-.03.076-.056 1.975-.015 1.99.043.015 1.89.028 1.946 0s.1-1.918.043-1.961c-.056-.043-1.946-.1-1.974-.028m-.043-1.254c.05.064 1.875.057 1.931.029.056-.029.028-1.862-.015-1.932-.043-.071-1.875-.028-1.918.015-.04.04-.055 1.817.002 1.888m.056-5.162c-.036.072 0 1.834.028 1.89.028.057 1.862.057 1.89.016.028-.044.043-1.847.015-1.89-.028-.044-1.905-.072-1.933-.016m.043-1.325c.05.05 1.89.015 1.931 0 .043-.015.028-1.875.015-1.946-.013-.072-1.903-.029-1.96 0-.057.028-.057 1.875.014 1.946"/><path fill="#E1E1E1" d="M9.705 22.192c-.013-.014-.04-3.745.013-3.812.054-.068 4.282-.027 4.322.013s.026 3.772.013 3.799c-.013.026-4.348 0-4.348 0"/><path fill="#536F7B" d="M10.103 18.744h1.588v3.124h-1.589zm1.996-.006h1.622v3.124H12.1z"/></svg>