<svg xmlns="http://www.w3.org/2000/svg" width="22" height="22" fill="none"><path fill="#9B9B9B" d="M.5 21.5h3.024l7.459-2.081 7.459 2.081H21.5V5.975a1.725 1.725 0 0 0-1.725-1.725H2.225A1.725 1.725 0 0 0 .5 5.975z"/><path fill="#83CBFF" d="M19.25 9.5h-.75a.75.75 0 0 1-.75-.75V8c0-.412.337-.75.75-.75h.75c.413 0 .75.338.75.75v.75c0 .42-.337.75-.75.75m.75 3v-.75a.75.75 0 0 0-.75-.75h-.75a.75.75 0 0 0-.75.75v.75c0 .412.337.75.75.75h.75c.413 0 .75-.33.75-.75m0 3.75v-.75a.75.75 0 0 0-.75-.75h-.75a.75.75 0 0 0-.75.75v.75c0 .413.337.75.75.75h.75c.413 0 .75-.33.75-.75M4.25 15.5v.75c0 .413-.337.75-.75.75h-.75a.75.75 0 0 1-.75-.75v-.75c0-.412.337-.75.75-.75h.75c.413 0 .75.338.75.75M3.5 7.25h-.75A.75.75 0 0 0 2 8v.75c0 .412.337.75.75.75h.75c.413 0 .75-.338.75-.75V8a.75.75 0 0 0-.75-.75m0 3.75h-.75a.75.75 0 0 0-.75.75v.75c0 .412.337.75.75.75h.75c.413 0 .75-.338.75-.75v-.75A.75.75 0 0 0 3.5 11"/><path fill="#D3D3D3" d="M18.5 21.5h-5.26l-2.262-1.297L8.717 21.5H3.5V2.345C3.5 1.325 4.325.5 5.345.5h11.31c1.02 0 1.845.825 1.845 1.845z"/><path fill="#1C1C1C" d="M13.25 21.5h-4.5v-2.812c0-.518.42-.938.938-.938h2.624c.518 0 .946.42.946.945V21.5z"/><path fill="#83CBFF" d="M9.875 12.5h-2.25a.376.376 0 0 1-.375-.375v-1.508c0-.202.165-.375.375-.375h2.258c.202 0 .375.165.375.375v1.508a.383.383 0 0 1-.383.375m4.875-.367v-1.508a.376.376 0 0 0-.375-.375h-2.25a.376.376 0 0 0-.375.375v1.508c0 .202.165.375.375.375h2.258a.38.38 0 0 0 .367-.375m-4.5 3.75v-1.508A.376.376 0 0 0 9.875 14h-2.25a.376.376 0 0 0-.375.375v1.508c0 .202.165.375.375.375h2.258a.38.38 0 0 0 .367-.375m4.5 0v-1.508a.376.376 0 0 0-.375-.375h-2.25a.376.376 0 0 0-.375.375v1.508c0 .202.165.375.375.375h2.258a.38.38 0 0 0 .367-.375m-4.5-11.25V3.125a.376.376 0 0 0-.375-.375h-2.25a.376.376 0 0 0-.375.375v1.508c0 .202.165.375.375.375h2.258a.38.38 0 0 0 .367-.375m4.5 0V3.125a.376.376 0 0 0-.375-.375h-2.25a.376.376 0 0 0-.375.375v1.508c0 .202.165.375.375.375h2.258a.38.38 0 0 0 .367-.375m-4.5 3.75V6.875a.376.376 0 0 0-.375-.375h-2.25a.376.376 0 0 0-.375.375v1.508c0 .202.165.375.375.375h2.258a.38.38 0 0 0 .367-.375m4.5 0V6.875a.376.376 0 0 0-.375-.375h-2.25a.376.376 0 0 0-.375.375v1.508c0 .202.165.375.375.375h2.258a.38.38 0 0 0 .367-.375"/></svg>