<svg xmlns="http://www.w3.org/2000/svg" width="22" height="22" fill="none"><g clip-path="url(#a)"><path fill="#F4900C" d="M20.472 11C21.316 11 22 10.043 22 8.862s-.684-2.14-1.528-2.14-1.528.958-1.528 2.14c0 1.18.684 2.138 1.528 2.138M1.528 11c.844 0 1.528-.957 1.528-2.138s-.684-2.14-1.528-2.14S0 7.68 0 8.863C0 10.042.684 11 1.528 11"/><path fill="#FFAC33" d="M20.778 11.611a.61.61 0 0 1-.61.611h-1.834a.61.61 0 0 1-.611-.61v-5.5a.61.61 0 0 1 .61-.612h1.834a.61.61 0 0 1 .611.611zm-16.5 0a.61.61 0 0 1-.61.611H1.833a.61.61 0 0 1-.611-.61v-5.5a.61.61 0 0 1 .61-.612h1.834a.61.61 0 0 1 .611.611z"/><path fill="#FFCC4D" d="M17.11 3.056C17.11 4.743 14.375 5.5 11 5.5s-6.111-.757-6.111-2.444C4.889 1.368 7.625 0 10.999 0c3.376 0 6.112 1.368 6.112 3.056"/><path fill="#F4900C" d="M15.278 2.496c0 .984-1.916 1.782-4.278 1.782S6.723 3.48 6.723 2.496C6.723 1.51 8.638.712 11 .712s4.278.798 4.278 1.782"/><path fill="#269" d="M18.334 3.362c0 .844-.684.916-1.528.916H5.195c-.844 0-1.528-.072-1.528-.916s.684-1.528 1.528-1.528h11.61a1.53 1.53 0 0 1 1.529 1.528"/><path fill="#55ACEE" d="M18.333 3.666H3.667a1.22 1.22 0 0 0-1.223 1.222v15.89h17.111V4.887a1.22 1.22 0 0 0-1.222-1.222"/><path fill="#3B88C3" d="M21.389 20.167v-.61a1.22 1.22 0 0 0-1.223-1.223h-6.678l-2.056 2.056a.61.61 0 0 1-.864 0l-2.056-2.056H1.833a1.22 1.22 0 0 0-1.222 1.222v.611c0 .675-.064 1.223.611 1.223h19.556c.674 0 .61-.548.61-1.223"/><path fill="#fff" d="M14.973 11.611a2.75 2.75 0 1 0 0-5.5 2.75 2.75 0 0 0 0 5.5"/><path fill="#DD2E44" d="M14.972 10.525a1.663 1.663 0 1 0 0-3.326 1.663 1.663 0 0 0 0 3.326"/><path fill="#fff" d="M7.027 11.611a2.75 2.75 0 1 0 0-5.5 2.75 2.75 0 0 0 0 5.5"/><path fill="#F5F8FA" d="M17.722 15.583a1.53 1.53 0 0 1-1.528 1.527H5.805a1.528 1.528 0 1 1 0-3.055h10.389a1.527 1.527 0 0 1 1.528 1.527"/><path fill="#CCD6DD" d="M10.389 14.055h1.222v3.055h-1.223zm-3.056 0h1.222v3.055H7.333zm6.111 0h1.222v3.055h-1.222zm-9.167 1.527A1.53 1.53 0 0 0 5.5 17.08v-2.995a1.53 1.53 0 0 0-1.223 1.497M16.5 14.086v2.994a1.527 1.527 0 0 0 0-2.994"/><path fill="#DD2E44" d="M7.028 10.525a1.663 1.663 0 1 0 0-3.326 1.663 1.663 0 0 0 0 3.326"/></g><defs><clipPath id="a"><path fill="#fff" d="M0 0h22v22H0z"/></clipPath></defs></svg>