<svg xmlns="http://www.w3.org/2000/svg" width="24" height="24" fill="none"><g clip-path="url(#a)"><path fill="#CA2C31" d="m.707 13.449 3.064-3.019 5.216-.924-.516 2.73-7.051 2.167-.456-.197z"/><path fill="#A02422" d="M4.3 11.205.976 14.227l2.446 1.192 3.715-1.895v-.894l.76-2.048zm7.872 5.323-1.607.697-1.517 3.216s1.335 2.957 1.395 2.957.82.06.82.06l2.7-3.02.682-5.155z"/><path fill="#CA2C31" d="M10.594 18.907s.894-.182 1.532-.485c.637-.304 1.425-.758 1.425-.758l-.289 2.518-2.822 3.212s-.11-.137-.58-1.157c-.372-.814-.502-1.104-.502-1.104z"/><path fill="#F7D74D" d="M5.921 15.124s-1.076-.09-2.255 1.4c-1.077 1.362-1.581 3.578-1.776 4.148s-.662.686-.506.947c.155.26.829.246 1.66.143.83-.104 1.542-.364 1.542-.364s-.035.09-.155.285c-.043.07-.194.169-.182.272.026.245 2.13.251 3.81-1.478 1.815-1.865.934-3.395.934-3.395z"/><path fill="#FBF0B4" d="M6.246 15.992s-1.161.062-2.121 1.553-1.406 3.217-1.314 3.333c.09.117 1.878-.53 2.308-.4.294.09.142.387.221.466.066.066.842.176 2.098-1.185 1.258-1.361.96-3.274.96-3.274z"/><path fill="#858585" d="M6.815 13.957s-.583.52-.791.817c-.208.299-.208.325-.195.415s.229 1.078 1.127 1.944c1.102 1.063 2.087 1.206 2.23 1.206s1.089-1.063 1.089-1.063z"/><path fill="#437687" d="M9.394 17.108s.945.62 2.529.088c2.166-.728 3.754-2.355 5.72-4.41 1.898-1.984 3.49-4.446 3.49-4.446l-1.116-3.736z"/><path fill="#3F545F" d="m12.748 15.062.26-.81.653.092.863.405c.365.17.836.3.836.3l-.928.784s-.507-.192-.876-.353c-.416-.182-.808-.418-.808-.418"/><path fill="#8DAFBF" d="M15.81 3.025s-1.804 1.047-4.39 3.494c-2.33 2.205-4.057 4.2-4.475 5.896-.35 1.422-.164 2.284.63 3.216.838.986 1.82 1.476 1.82 1.476s.739.01 3.822-2.361c3.845-2.96 6.926-7.918 6.926-7.918z"/><path fill="#D83F22" d="M19.534 7.844s-1.57-.67-2.69-2.231c-1.111-1.55-1.023-2.599-1.023-2.599s.93-.73 3.02-1.564c1.407-.56 3.321-.847 3.951-.38s-.431 2.808-.431 2.808l-1.933 3.743z"/><path fill="#6896A5" d="M12.782 15.075s-1.356-.692-2.219-1.676c-1.63-1.858-1.968-3.898-1.968-3.898l.82-.962s.203 2.168 1.953 4.04c1.14 1.221 2.33 1.78 2.33 1.78s-.238.2-.493.396c-.163.125-.423.32-.423.32"/><path fill="#A02422" d="M21.134 8.34s.813-.98 1.584-3.19c1.076-3.083.139-4.017.139-4.017s-.317 1.466-1.418 3.504a40 40 0 0 1-1.952 3.188s.59.264.908.356c.401.116.739.16.739.16"/><path fill="#B3E1EE" d="M7.464 13.06c.244.233.613-.01.855-.58.244-.57.24-.89.053-1.025-.233-.168-.623.2-.793.53-.188.363-.298.9-.115 1.075m8.464-9.287s-1.427 1.026-2.95 2.421c-1.396 1.28-2.322 2.282-2.45 2.514-.135.25-.137.602-.032.782s.338.274.55.117c.211-.16 1.72-1.829 3.084-3.021 1.247-1.091 2.209-1.783 2.209-1.783s.39-.69.326-.848c-.064-.16-.737-.182-.737-.182"/><path fill="#ED6A65" d="M15.928 3.774s1.053-.809 2.201-1.377c1.067-.528 2.128-.97 2.32-.587.181.364-1.008.86-2.054 1.527S16.342 4.8 16.342 4.8s-.154-.281-.253-.542a5 5 0 0 1-.161-.486"/><path fill="#E1E1E1" d="M16.798 7.36a2.224 2.224 0 0 0-3.214.152 2.225 2.225 0 0 0 .188 3.037c.789.735 2.257.902 3.142-.129.788-.915.739-2.274-.116-3.06"/><path fill="#3F545F" d="M14.125 7.85c-.62.61-.587 1.817.152 2.368.645.482 1.56.458 2.133-.13.574-.586.574-1.653.036-2.204-.619-.632-1.61-.731-2.321-.034"/><path fill="#A02524" d="M9.375 14.417s1.16-1.177 1.288-1.05c.128.128.11.842-.444 1.637-.557.795-1.781 2.21-2.75 3.165-.957.94-2.305 2.014-2.433 1.995-.1-.015-.502-.216-.663-.41-.158-.194.313-1.107.502-1.409.191-.302 4.5-3.928 4.5-3.928"/><path fill="#CA2C31" d="M3.98 19.097c-.014.27.398.664.398.664l6.285-6.392s-.294-.332-1.16.206c-.874.544-1.639 1.196-2.768 2.29-1.573 1.526-2.74 2.962-2.754 3.232"/><path fill="#fff" d="M3.574 6.928c-.208.208-.218.542.015.733.206.171.542.06.667-.093.126-.154.11-.488-.056-.653-.167-.167-.499-.112-.626.013"/><path fill="#fff" d="M7.691 6.685c-.157.174-.106.433.04.528s.365.087.472-.045a.395.395 0 0 0-.04-.5c-.127-.126-.37-.096-.472.017" opacity=".5"/><path fill="#fff" d="M10.416 2.228s.229-.652.364-.66c.136-.007.333.653.333.653s.677.007.722.107c.058.127-.433.555-.433.555s.16.637.084.714c-.084.085-.667-.251-.667-.251s-.6.418-.73.304c-.112-.1.122-.775.122-.775s-.562-.41-.532-.525c.043-.161.737-.122.737-.122m7.773 15.645c.227.126.512.055.617-.187.096-.216-.08-.473-.24-.542s-.438.023-.54.204c-.099.18.027.45.163.525m3.222-5.529c-.13-.2-.409-.266-.59-.105-.177.157-.134.405-.035.53.1.126.366.173.527.07s.177-.375.098-.495"/></g><defs><clipPath id="a"><path fill="#fff" d="M0 0h24v24H0z"/></clipPath></defs></svg>