<svg xmlns="http://www.w3.org/2000/svg" width="24" height="24" fill="none"><g clip-path="url(#a)"><path fill="#1C98CB" d="M9.231.174a9.055 9.055 0 0 0-8.37 12.524 9.06 9.06 0 0 0 8.37 5.591c2.114 0 4.055-.748 5.597-1.961l.807.807a1.7 1.7 0 0 0 .317 1.99l4.24 4.27a1.697 1.697 0 0 0 2.395 0l.808-.808a1.7 1.7 0 0 0 0-2.394l-4.27-4.241a1.68 1.68 0 0 0-1.99-.288l-.808-.808A9.058 9.058 0 0 0 9.23.174m0 1.672a7.385 7.385 0 1 1 0 14.77 7.385 7.385 0 0 1 0-14.77M4.557 6.895a5.03 5.03 0 0 0-.75 2.654 5.04 5.04 0 0 0 5.05 5.048 5.08 5.08 0 0 0 2.913-.923q-.346.031-.693.027a6.503 6.503 0 0 1-6.52-6.518c0-.096-.004-.192 0-.288"/></g><defs><clipPath id="a"><path fill="#fff" d="M0 0h24v24H0z"/></clipPath></defs></svg>