<svg width="16" height="15" viewBox="0 0 16 15" fill="none" xmlns="http://www.w3.org/2000/svg">
<path d="M6.09518 1.71228C3.72185 2.06371 1.46102 4.27953 1.09625 6.61224C0.646021 9.49165 1.91125 12.0924 4.36826 13.338C6.77169 14.5564 9.76332 14.0793 11.5798 12.1876C13.4848 10.204 13.9191 7.31995 12.668 4.96159C12.2676 4.20691 12.2698 4.19812 12.9812 3.65071C15.1369 5.92892 14.7266 10.5176 12.1424 13.032C9.43581 15.6654 4.88281 15.6541 2.2117 13.0076C-0.575852 10.2454 -0.754117 5.66105 1.82311 3.01509C4.51678 0.249356 8.99955 -0.19101 11.4725 2.09796C11.2527 2.32029 11.0339 2.54155 10.799 2.77895C9.44459 1.83367 7.96222 1.50303 6.3598 1.6714C6.27166 1.68503 6.18333 1.69847 6.09518 1.7121V1.71228Z" fill="#1B1464"/>
<path d="M7.25643 7.77365C9.35864 4.86358 11.3088 1.79034 15.34 0.299805C13.0098 2.63772 11.2285 4.66455 9.81781 7.02094C8.96039 8.4532 8.15888 9.92384 7.33929 11.3817C7.15298 11.7131 7.00751 11.7407 6.8381 11.3739C6.26643 10.1354 5.69794 8.89536 5.1102 7.66571C4.88655 7.19791 4.5628 6.84648 4 6.96948C4.10814 5.75094 5.57038 5.57254 6.49158 6.65086C6.78352 6.99279 7.00667 7.40214 7.25626 7.77347L7.25643 7.77365Z" fill="#1C98CB"/>
</svg>
