<svg width="22" height="18" viewBox="0 0 22 18" fill="none" xmlns="http://www.w3.org/2000/svg">
<g clip-path="url(#clip0_606_7661)">
<path d="M0.532021 15.5632C0.532021 14.9251 0.988609 14.3555 1.62783 14.2416C2.58666 14.0593 3.52266 13.6492 4.43583 12.9884C5.69144 12.0998 6.33066 11.0061 6.33066 9.70742C6.33066 8.52262 5.21202 8.5682 4.32168 8.65929C1.17124 9.00107 -0.92905 5.62893 0.737486 2.91755C2.33553 0.320068 6.35348 0.433993 8.17983 2.66692C10.8052 5.87956 9.89202 11.7125 6.96987 14.4467C5.57729 15.7454 3.95641 16.5428 2.08441 16.8846C1.28539 17.0441 0.532021 16.3834 0.532021 15.5632ZM11.4901 15.5632C11.4901 14.9251 11.9467 14.3555 12.5859 14.2416C13.5447 14.0593 14.4807 13.6492 15.3939 12.9884C16.6495 12.0998 17.2887 11.0061 17.2887 9.70742C17.2887 8.52262 16.1701 8.5682 15.2797 8.65929C12.1293 9.00107 10.029 5.62893 11.6955 2.91755C13.2936 0.320068 17.3115 0.433993 19.1379 2.66692C21.7633 5.90235 20.8501 11.7353 17.928 14.4695C16.5354 15.7681 14.9145 16.5656 13.0425 16.9074C12.2434 17.0441 11.4901 16.3834 11.4901 15.5632Z" fill="url(#paint0_linear_606_7661)"/>
</g>
<defs>
<linearGradient id="paint0_linear_606_7661" x1="-0.159668" y1="9.12061" x2="20.8403" y2="9.12061" gradientUnits="userSpaceOnUse">
<stop stop-color="#1C98CB"/>
<stop offset="1" stop-color="#1B1464"/>
</linearGradient>
<clipPath id="clip0_606_7661">
<rect width="21.6" height="16.8" fill="white" transform="translate(0.150024 0.980469)"/>
</clipPath>
</defs>
</svg>
