<svg width="22" height="17" viewBox="0 0 22 17" fill="none" xmlns="http://www.w3.org/2000/svg">
<g clip-path="url(#clip0_606_7653)">
<path d="M20.4062 1.56251C20.4062 2.20048 19.9496 2.77009 19.3103 2.88402C18.3515 3.0663 17.4155 3.47641 16.5023 4.13719C15.2466 5.02577 14.6075 6.11947 14.6075 7.41819C14.6075 8.60299 15.7262 8.55742 16.6164 8.46632C19.7669 8.12454 21.8672 11.4967 20.2006 14.208C18.6026 16.8056 14.5846 16.6917 12.7583 14.4587C10.1329 11.246 11.0461 5.41313 13.9683 2.67896C15.3609 1.38022 16.9817 0.582753 18.8537 0.240981C19.6527 0.0814881 20.4062 0.742251 20.4062 1.56251ZM9.44805 1.56251C9.44805 2.20048 8.99146 2.77009 8.35225 2.88402C7.39342 3.0663 6.45742 3.47641 5.54424 4.13719C4.28864 5.02577 3.64942 6.11947 3.64942 7.41819C3.64942 8.60299 4.76805 8.55742 5.65839 8.46632C8.80883 8.12454 10.9091 11.4967 9.24259 14.208C7.64455 16.8056 3.62658 16.6917 1.80023 14.4587C-0.825138 11.2233 0.0880332 5.39034 3.01018 2.65618C4.40278 1.35744 6.02366 0.559972 7.89566 0.218196C8.69469 0.081488 9.44805 0.742251 9.44805 1.56251Z" fill="url(#paint0_linear_606_7653)"/>
</g>
<defs>
<linearGradient id="paint0_linear_606_7653" x1="-0.160156" y1="8.12012" x2="20.8398" y2="8.12012" gradientUnits="userSpaceOnUse">
<stop stop-color="#1C98CB"/>
<stop offset="1" stop-color="#1B1464"/>
</linearGradient>
<clipPath id="clip0_606_7653">
<rect width="21.6" height="16.8" fill="white" transform="translate(0.25 0.200195)"/>
</clipPath>
</defs>
</svg>
