<svg width="21" height="22" viewBox="0 0 21 22" fill="none" xmlns="http://www.w3.org/2000/svg">
<path fill-rule="evenodd" clip-rule="evenodd" d="M15.75 0.154297H5.25C2.36276 0.154297 0 2.51601 0 5.4043V15.9043C0 18.7915 2.36276 21.1543 5.25 21.1543H15.75C18.6372 21.1543 21 18.7915 21 15.9043V5.4043C21 2.51601 18.6372 0.154297 15.75 0.154297ZM10.5001 15.0293C8.08351 15.0293 6.125 13.07 6.125 10.6545C6.125 8.23789 8.08351 6.27937 10.5001 6.27937C12.9156 6.27937 14.8752 8.23789 14.8752 10.6545C14.8752 13.07 12.9156 15.0293 10.5001 15.0293ZM14.875 4.96687C14.875 5.69164 15.462 6.27937 16.1875 6.27937C16.913 6.27937 17.5 5.69164 17.5 4.96687C17.5 4.24211 16.913 3.65437 16.1875 3.65437C15.462 3.65437 14.875 4.24211 14.875 4.96687Z" fill="url(#paint0_linear_606_7444)"/>
<defs>
<linearGradient id="paint0_linear_606_7444" x1="-8.49616e-08" y1="11.2376" x2="21.5833" y2="10.6543" gradientUnits="userSpaceOnUse">
<stop stop-color="#1C98CB"/>
<stop offset="1" stop-color="#1B1464"/>
</linearGradient>
</defs>
</svg>
