<svg width="24" height="19" viewBox="0 0 24 19" fill="none" xmlns="http://www.w3.org/2000/svg">
<path fill-rule="evenodd" clip-rule="evenodd" d="M21.5129 0.777717C22.5491 0.920648 23.5394 1.98755 23.6654 3.10019C24.1115 7.17787 24.1115 11.132 23.6654 15.2084C23.5394 16.321 22.5491 17.3892 21.5129 17.5309C15.1945 18.3621 8.80464 18.3621 2.48802 17.5309C1.4509 17.3889 0.460584 16.321 0.334581 15.2084C-0.111527 11.1317 -0.111527 7.17787 0.334581 3.10019C0.460584 1.98755 1.4509 0.92033 2.48802 0.777717C8.80464 -0.0535097 15.1942 -0.0535097 21.5129 0.777717ZM10 4.91983V13.39L16.0001 9.15505L10 4.91983Z" fill="url(#paint0_linear_606_7449)"/>
<defs>
<linearGradient id="paint0_linear_606_7449" x1="-0.53871" y1="10.7798" x2="24.7819" y2="10.271" gradientUnits="userSpaceOnUse">
<stop stop-color="#1C98CB"/>
<stop offset="0.96" stop-color="#1B1464"/>
</linearGradient>
</defs>
</svg>
