<svg width="30" height="30" viewBox="0 0 30 30" fill="none" xmlns="http://www.w3.org/2000/svg">
<g clip-path="url(#clip0_606_8748)">
<path d="M14.9932 27.892L26.6592 15.1754C27.8239 13.8459 28.5352 12.1802 28.6903 10.4195C28.8453 8.65878 28.4358 6.89444 27.5213 5.38191C26.9893 4.40309 26.2085 3.58195 25.2577 3.00143C24.3069 2.4209 23.2197 2.10153 22.106 2.07556C20.9922 2.0496 19.8913 2.31796 18.9145 2.85355C17.9377 3.38914 17.1194 4.17299 16.5424 5.12596L15.0067 7.32174L13.4575 5.12596C12.882 4.17492 12.0661 3.39218 11.0921 2.85646C10.118 2.32074 9.02011 2.05092 7.90871 2.07413C6.7973 2.09735 5.71159 2.41277 4.76076 2.98869C3.80993 3.56461 3.02749 4.38073 2.49212 5.35497C1.57262 6.86752 1.15916 8.63377 1.31177 10.3973C1.46438 12.1608 2.17512 13.8298 3.3408 15.1619L14.9932 27.892Z" fill="white" stroke="url(#paint0_linear_606_8748)" stroke-width="1.68388" stroke-linecap="round" stroke-linejoin="round"/>
</g>
<defs>
<linearGradient id="paint0_linear_606_8748" x1="0.999511" y1="12.5002" x2="28.9995" y2="12.5002" gradientUnits="userSpaceOnUse">
<stop stop-color="#1C98CB"/>
<stop offset="1" stop-color="#1B1464"/>
</linearGradient>
<clipPath id="clip0_606_8748">
<rect width="30" height="30" fill="white"/>
</clipPath>
</defs>
</svg>
