<svg width="30" height="30" viewBox="0 0 30 30" fill="none" xmlns="http://www.w3.org/2000/svg">
<g clip-path="url(#clip0_606_8723)">
<g clip-path="url(#clip1_606_8723)">
<path d="M9.49475 26.3668V13.0931H2.22803C1.86919 13.0931 1.52504 13.2357 1.27129 13.4894C1.01755 13.7431 0.875 14.0873 0.875 14.4461V27.1833C0.878076 27.5401 1.02198 27.8813 1.27539 28.1325C1.5288 28.3837 1.8712 28.5247 2.22803 28.5247H8.75991M9.49475 15.5659V26.3668C10.5613 27.277 11.8632 27.8673 13.2506 28.0698C16.8798 28.2437 20.5169 28.1541 24.1332 27.8015C26.3493 27.1017 26.4893 25.1538 25.7545 24.3256C26.7109 24.3606 29.0554 22.4594 27.5857 20.4648C27.9998 20.2789 28.3565 19.9855 28.6189 19.6151C28.8813 19.2447 29.0398 18.8109 29.0779 18.3586C29.1159 17.9063 29.0323 17.452 28.8355 17.043C28.6388 16.6339 28.3361 16.285 27.959 16.0325C29.1954 14.0962 28.5772 11.985 26.5476 11.6351C23.8776 11.3263 21.1764 11.4207 18.5344 11.915C17.8929 12.1717 20.249 7.71597 19.036 4.99825C18.4178 3.59856 17.7179 2.16388 16.6682 1.68565C16.0065 1.43682 15.277 1.43682 14.6153 1.68565C13.8921 1.97725 15.0002 4.25174 14.8019 6.37461C14.6237 7.35118 14.2889 8.29255 13.8105 9.16232C13.2137 10.7846 12.4802 12.3533 11.6176 13.8513" fill="white"/>
<path d="M9.49475 26.3668V13.0931H2.22803C1.86919 13.0931 1.52504 13.2357 1.27129 13.4894C1.01755 13.7431 0.875 14.0873 0.875 14.4461V27.1833C0.878076 27.5401 1.02198 27.8813 1.27539 28.1325C1.5288 28.3837 1.8712 28.5247 2.22803 28.5247H8.75991M9.49475 26.3668V15.5659M9.49475 26.3668C10.5613 27.277 11.8632 27.8673 13.2506 28.0698C16.8798 28.2437 20.5169 28.1541 24.1332 27.8015C26.3493 27.1017 26.4893 25.1538 25.7545 24.3256C26.7109 24.3606 29.0554 22.4594 27.5857 20.4648C27.9998 20.2789 28.3565 19.9855 28.6189 19.6151C28.8813 19.2447 29.0398 18.8109 29.0779 18.3586C29.1159 17.9063 29.0323 17.452 28.8355 17.043C28.6388 16.6339 28.3361 16.285 27.959 16.0325C29.1954 14.0962 28.5772 11.985 26.5476 11.6351C23.8776 11.3263 21.1764 11.4207 18.5344 11.915C17.8929 12.1717 20.249 7.71597 19.036 4.99825C18.4178 3.59856 17.7179 2.16388 16.6682 1.68565C16.0065 1.43682 15.277 1.43682 14.6153 1.68565C13.8921 1.97725 15.0002 4.25174 14.8019 6.37461C14.6237 7.35118 14.2889 8.29255 13.8105 9.16232C13.2137 10.7846 12.4802 12.3533 11.6176 13.8513" stroke="url(#paint0_linear_606_8723)" stroke-width="1.45801" stroke-linecap="round" stroke-linejoin="round"/>
</g>
</g>
<defs>
<linearGradient id="paint0_linear_606_8723" x1="-0.5" y1="19.0002" x2="29" y2="18.5002" gradientUnits="userSpaceOnUse">
<stop stop-color="#1C98CB"/>
<stop offset="1" stop-color="#1B1464"/>
</linearGradient>
<clipPath id="clip0_606_8723">
<rect width="30" height="30" fill="white"/>
</clipPath>
<clipPath id="clip1_606_8723">
<rect width="30" height="30" fill="white"/>
</clipPath>
</defs>
</svg>
