<svg width="30" height="30" viewBox="0 0 30 30" fill="none" xmlns="http://www.w3.org/2000/svg">
<g clip-path="url(#clip0_606_8736)">
<path d="M18.1043 26.5346H11.8959V21.7721C11.8957 21.4514 11.8085 21.1367 11.6438 20.8616C11.4791 20.5864 11.2429 20.361 10.9604 20.2093C9.57662 19.4533 8.43263 18.3243 7.6584 16.9506C6.88417 15.5769 6.51074 14.0136 6.58053 12.4383C6.69787 10.3231 7.59942 8.32763 9.10911 6.84153C10.6188 5.35543 12.6282 4.48542 14.745 4.4014C16.6312 4.3514 18.4798 4.93568 19.9947 6.06074C21.5095 7.18579 22.6032 8.78656 23.1005 10.6068C23.5978 12.427 23.4701 14.3615 22.7377 16.1005C22.0053 17.8396 20.7107 19.2826 19.061 20.1987C18.7792 20.3513 18.5437 20.5769 18.3791 20.8519C18.2145 21.1268 18.1269 21.441 18.1255 21.7614L18.1043 26.5346ZM15.0001 29.1923C14.4127 29.1923 13.8491 28.9597 13.4328 28.5453C13.0164 28.131 12.7811 27.5686 12.7783 26.9811V26.5346H17.2219V26.9811C17.2219 27.5704 16.9878 28.1355 16.5712 28.5522C16.1545 28.9689 15.5894 29.203 15.0001 29.203V29.1923ZM11.8959 22.1122H18.1043H11.8959Z" fill="white"/>
<path d="M11.8959 22.1122H18.1043M18.1043 26.5346H11.8959V21.7721C11.8957 21.4514 11.8085 21.1367 11.6438 20.8616C11.4791 20.5864 11.2429 20.361 10.9604 20.2093C9.57662 19.4533 8.43263 18.3243 7.6584 16.9506C6.88417 15.5769 6.51074 14.0136 6.58053 12.4383C6.69787 10.3231 7.59942 8.32763 9.10911 6.84153C10.6188 5.35543 12.6282 4.48542 14.745 4.4014C16.6312 4.3514 18.4798 4.93568 19.9947 6.06074C21.5095 7.18579 22.6032 8.78656 23.1005 10.6068C23.5978 12.427 23.4701 14.3615 22.7377 16.1005C22.0053 17.8396 20.7107 19.2826 19.061 20.1987C18.7792 20.3513 18.5437 20.5769 18.3791 20.8519C18.2145 21.1268 18.1269 21.441 18.1255 21.7614L18.1043 26.5346ZM15.0001 29.1923C14.4127 29.1923 13.8491 28.9597 13.4328 28.5453C13.0164 28.131 12.7811 27.5686 12.7783 26.9811V26.5346H17.2219V26.9811C17.2219 27.5704 16.9878 28.1355 16.5712 28.5522C16.1545 28.9689 15.5894 29.203 15.0001 29.203V29.1923Z" stroke="url(#paint0_linear_606_8736)" stroke-width="1.32884" stroke-linecap="round" stroke-linejoin="round"/>
<path d="M13.6711 22.1014V11.8959C13.6725 11.7205 13.6391 11.5465 13.573 11.3841C13.5068 11.2216 13.4092 11.0739 13.2856 10.9494C13.1621 10.8248 13.0151 10.726 12.8532 10.6586C12.6913 10.5911 12.5176 10.5564 12.3422 10.5564C12.1668 10.5564 11.9931 10.5911 11.8312 10.6586C11.6693 10.726 11.5223 10.8248 11.3988 10.9494C11.2753 11.0739 11.1776 11.2216 11.1115 11.3841C11.0453 11.5465 11.012 11.7205 11.0134 11.8959C11.0134 12.2483 11.1534 12.5863 11.4026 12.8355C11.6518 13.0847 11.9898 13.2247 12.3422 13.2247H17.6682C18.0207 13.2247 18.3587 13.0847 18.6079 12.8355C18.8571 12.5863 18.9971 12.2483 18.9971 11.8959C18.9985 11.7205 18.9651 11.5465 18.899 11.3841C18.8328 11.2216 18.7352 11.0739 18.6116 10.9494C18.4881 10.8248 18.3411 10.726 18.1792 10.6586C18.0173 10.5911 17.8436 10.5564 17.6682 10.5564C17.4928 10.5564 17.3192 10.5911 17.1572 10.6586C16.9953 10.726 16.8483 10.8248 16.7248 10.9494C16.6013 11.0739 16.5036 11.2216 16.4375 11.3841C16.3713 11.5465 16.338 11.7205 16.3394 11.8959V22.1014M11.8957 24.3126H18.1041H11.8957ZM14.9999 0.797363V2.5727V0.797363ZM9.02542 2.40261L9.90777 3.94407L9.02542 2.40261ZM4.62429 6.78248L6.16575 7.66483L4.62429 6.78248ZM3.01904 12.7782H4.79438H3.01904ZM4.62429 18.7633L6.16575 17.881L4.62429 18.7633ZM25.3755 18.7633L23.8341 17.881L25.3755 18.7633ZM26.9808 12.7782H25.2054H26.9808ZM25.3755 6.79311L23.8341 7.67546L25.3755 6.79311ZM20.985 2.40261L20.1027 3.94407L20.985 2.40261Z" fill="white"/>
<path d="M13.6711 22.1014V11.8959C13.6725 11.7205 13.6391 11.5465 13.573 11.3841C13.5068 11.2216 13.4092 11.0739 13.2856 10.9494C13.1621 10.8248 13.0151 10.726 12.8532 10.6586C12.6913 10.5911 12.5176 10.5564 12.3422 10.5564C12.1668 10.5564 11.9931 10.5911 11.8312 10.6586C11.6693 10.726 11.5223 10.8248 11.3988 10.9494C11.2753 11.0739 11.1776 11.2216 11.1115 11.3841C11.0453 11.5465 11.012 11.7205 11.0134 11.8959C11.0134 12.2483 11.1534 12.5863 11.4026 12.8355C11.6518 13.0847 11.9898 13.2247 12.3422 13.2247H17.6682C18.0207 13.2247 18.3587 13.0847 18.6079 12.8355C18.8571 12.5863 18.9971 12.2483 18.9971 11.8959C18.9985 11.7205 18.9651 11.5465 18.899 11.3841C18.8328 11.2216 18.7352 11.0739 18.6116 10.9494C18.4881 10.8248 18.3411 10.726 18.1792 10.6586C18.0173 10.5911 17.8436 10.5564 17.6682 10.5564C17.4928 10.5564 17.3192 10.5911 17.1572 10.6586C16.9953 10.726 16.8483 10.8248 16.7248 10.9494C16.6013 11.0739 16.5036 11.2216 16.4375 11.3841C16.3713 11.5465 16.338 11.7205 16.3394 11.8959V22.1014M11.8957 24.3126H18.1041M14.9999 0.797363V2.5727M9.02542 2.40261L9.90777 3.94407M4.62429 6.78248L6.16575 7.66483M3.01904 12.7782H4.79438M4.62429 18.7633L6.16575 17.881M25.3755 18.7633L23.8341 17.881M26.9808 12.7782H25.2054M25.3755 6.79311L23.8341 7.67546M20.985 2.40261L20.1027 3.94407" stroke="url(#paint1_linear_606_8736)" stroke-width="1.32884" stroke-linecap="round" stroke-linejoin="round"/>
</g>
<defs>
<linearGradient id="paint0_linear_606_8736" x1="14.9854" y1="4.39844" x2="14.9854" y2="29.203" gradientUnits="userSpaceOnUse">
<stop stop-color="#1C98CB"/>
<stop offset="0.995" stop-color="#1B1464"/>
</linearGradient>
<linearGradient id="paint1_linear_606_8736" x1="14.9999" y1="0.797363" x2="14.9999" y2="24.3126" gradientUnits="userSpaceOnUse">
<stop stop-color="#1C98CB"/>
<stop offset="0.995" stop-color="#1B1464"/>
</linearGradient>
<clipPath id="clip0_606_8736">
<rect width="30" height="30" fill="white"/>
</clipPath>
</defs>
</svg>
