<svg width="30" height="30" viewBox="0 0 30 30" fill="none" xmlns="http://www.w3.org/2000/svg">
<g clip-path="url(#clip0_606_8732)">
<path d="M24.5114 5.30768C24.1019 5.30768 23.7091 5.47035 23.4196 5.75992C23.13 6.04948 22.9673 6.44221 22.9673 6.85171V12.7986C22.9673 12.9154 22.9209 13.0274 22.8384 13.11C22.7558 13.1925 22.6438 13.2389 22.527 13.2389C22.4103 13.2389 22.2983 13.1925 22.2157 13.11C22.1331 13.0274 22.0867 12.9154 22.0867 12.7986V3.76365C22.0867 3.35415 21.9241 2.96142 21.6345 2.67186C21.3449 2.3823 20.9522 2.21962 20.5427 2.21962C20.1332 2.21962 19.7405 2.3823 19.4509 2.67186C19.1614 2.96142 18.9987 3.35415 18.9987 3.76365V12.7986C18.9987 12.9154 18.9523 13.0274 18.8697 13.11C18.7872 13.1925 18.6752 13.2389 18.5584 13.2389C18.4416 13.2389 18.3296 13.1925 18.2471 13.11C18.1645 13.0274 18.1181 12.9154 18.1181 12.7986V2.44881C18.1181 2.03931 17.9554 1.64658 17.6659 1.35702C17.3763 1.06746 16.9836 0.904785 16.5741 0.904785C16.1646 0.904785 15.7718 1.06746 15.4823 1.35702C15.1927 1.64658 15.0301 2.03931 15.0301 2.44881V12.7986C15.0301 12.9154 14.9837 13.0274 14.9011 13.11C14.8185 13.1925 14.7065 13.2389 14.5898 13.2389C14.473 13.2389 14.361 13.1925 14.2784 13.11C14.1959 13.0274 14.1495 12.9154 14.1495 12.7986V3.76365C14.1684 3.55023 14.1427 3.33521 14.074 3.13226C14.0053 2.92931 13.8951 2.74289 13.7505 2.58483C13.6058 2.42678 13.4298 2.30057 13.2337 2.21422C13.0376 2.12787 12.8257 2.08328 12.6115 2.08328C12.3972 2.08328 12.1853 2.12787 11.9892 2.21422C11.7931 2.30057 11.6172 2.42678 11.4725 2.58483C11.3278 2.74289 11.2177 2.92931 11.149 3.13226C11.0803 3.33521 11.0546 3.55023 11.0735 3.76365V18.5164C11.0752 18.597 11.0544 18.6766 11.0134 18.7461C10.9725 18.8156 10.913 18.8723 10.8416 18.9099C10.7702 18.9475 10.6897 18.9644 10.6092 18.9588C10.5288 18.9532 10.4514 18.9253 10.3859 18.8782L6.4052 16.1521C6.10873 15.9414 5.74609 15.845 5.38413 15.8806C5.02217 15.9162 4.68528 16.0814 4.43555 16.3459C4.18582 16.6103 4.04008 16.9561 4.02519 17.3195C4.0103 17.6829 4.12727 18.0394 4.35454 18.3234L9.69833 25.2956C10.6067 26.4737 11.7723 27.4284 13.1062 28.087C14.44 28.7456 15.9068 29.0905 17.3943 29.0954H17.6839C21.8214 29.0954 26.0433 28.0942 26.0433 20.7238V6.85171C26.0434 6.44635 25.884 6.05724 25.5996 5.76836C25.3153 5.47948 24.9287 5.31401 24.5234 5.30768H24.5114Z" fill="white" stroke="url(#paint0_linear_606_8732)" stroke-width="1.50784" stroke-linecap="round" stroke-linejoin="round"/>
</g>
<defs>
<linearGradient id="paint0_linear_606_8732" x1="0.500488" y1="17" x2="30.5005" y2="16.5" gradientUnits="userSpaceOnUse">
<stop stop-color="#1C98CB"/>
<stop offset="1" stop-color="#1B1464"/>
</linearGradient>
<clipPath id="clip0_606_8732">
<rect width="30" height="30" fill="white"/>
</clipPath>
</defs>
</svg>
