<svg width="30" height="30" viewBox="0 0 30 30" fill="none" xmlns="http://www.w3.org/2000/svg">
<g clip-path="url(#clip0_606_8742)">
<path d="M21.3235 7.57359L24.4301 5.8916L29.0716 14.4118L25.965 16.103L21.3235 7.57359ZM21.3235 7.57359L25.965 16.103L24.4209 18.3089C23.9519 18.9844 23.332 19.5414 22.6102 19.9357L14.7977 24.182C14.4904 24.3494 14.1293 24.3882 13.7935 24.29C13.4576 24.1919 13.1743 23.9647 13.0055 23.6581C12.9215 23.505 12.8687 23.3368 12.8501 23.1631C12.8315 22.9895 12.8474 22.8139 12.8969 22.6464C12.9465 22.479 13.0287 22.323 13.1388 22.1874C13.2489 22.0519 13.3848 21.9395 13.5385 21.8567L16.2499 20.3861L11.9852 22.7023C11.6779 22.8696 11.3168 22.9084 10.981 22.8103C10.6451 22.7121 10.3618 22.4849 10.193 22.1784C10.1087 22.0258 10.0553 21.858 10.0361 21.6848C10.0168 21.5115 10.0319 21.3362 10.0806 21.1688C10.1293 21.0014 10.2105 20.8453 10.3197 20.7094C10.4289 20.5735 10.5639 20.4605 10.7169 20.3769L14.9816 18.0607L9.17274 21.2225C9.02015 21.3068 8.85241 21.3601 8.67915 21.3794C8.50589 21.3987 8.33053 21.3835 8.16314 21.3349C7.99575 21.2862 7.83962 21.2049 7.70373 21.0957C7.56784 20.9865 7.45485 20.8516 7.37127 20.6986C7.28733 20.5454 7.23452 20.3772 7.2159 20.2036C7.19728 20.0299 7.2132 19.8543 7.26275 19.6869C7.31231 19.5194 7.39451 19.3634 7.50463 19.2279C7.61474 19.0923 7.7506 18.9799 7.90436 18.8971L13.7132 15.7354L9.45766 18.0607C9.30452 18.1447 9.13629 18.1975 8.96265 18.2161C8.78901 18.2347 8.6134 18.2188 8.44594 18.1692C8.27849 18.1197 8.12249 18.0375 7.98695 17.9274C7.8514 17.8172 7.73899 17.6814 7.65619 17.5276C7.48957 17.2192 7.45213 16.8573 7.55207 16.5212C7.65201 16.1852 7.88118 15.9026 8.18928 15.7354L9.93561 14.7795M0.827148 16.0387L3.1709 6.60851L6.59921 7.4541L4.26465 16.8751L0.827148 16.0387Z" fill="white"/>
<path d="M25.965 16.103L29.0716 14.4118L24.4301 5.8916L21.3235 7.57359L25.965 16.103ZM25.965 16.103L24.4209 18.3089C23.9519 18.9844 23.332 19.5414 22.6102 19.9357L14.7977 24.182C14.4904 24.3494 14.1293 24.3882 13.7935 24.29C13.4576 24.1919 13.1743 23.9647 13.0055 23.6581C12.9215 23.505 12.8687 23.3368 12.8501 23.1631C12.8315 22.9895 12.8474 22.8139 12.8969 22.6464C12.9465 22.479 13.0287 22.323 13.1388 22.1874C13.2489 22.0519 13.3848 21.9395 13.5385 21.8567L16.2499 20.3861L11.9852 22.7023C11.6779 22.8696 11.3168 22.9084 10.981 22.8103C10.6451 22.7121 10.3618 22.4849 10.193 22.1784C10.1087 22.0258 10.0553 21.858 10.0361 21.6848C10.0168 21.5115 10.0319 21.3362 10.0806 21.1688C10.1293 21.0014 10.2105 20.8453 10.3197 20.7094C10.4289 20.5735 10.5639 20.4605 10.7169 20.3769L14.9816 18.0607L9.17274 21.2225C9.02015 21.3068 8.85241 21.3601 8.67915 21.3794C8.50589 21.3987 8.33053 21.3835 8.16314 21.3349C7.99575 21.2862 7.83962 21.2049 7.70373 21.0957C7.56784 20.9865 7.45485 20.8516 7.37127 20.6986C7.28733 20.5454 7.23452 20.3772 7.2159 20.2036C7.19728 20.0299 7.2132 19.8543 7.26275 19.6869C7.31231 19.5194 7.39451 19.3634 7.50463 19.2279C7.61474 19.0923 7.7506 18.9799 7.90435 18.8971L13.7132 15.7354L9.45766 18.0607C9.30452 18.1447 9.13629 18.1975 8.96265 18.2161C8.78901 18.2347 8.6134 18.2188 8.44594 18.1692C8.27849 18.1197 8.12249 18.0375 7.98695 17.9274C7.8514 17.8172 7.73899 17.6814 7.65619 17.5276C7.48957 17.2192 7.45213 16.8573 7.55207 16.5212C7.65201 16.1852 7.88118 15.9026 8.18928 15.7354L9.93561 14.7795M0.827148 16.0387L3.1709 6.60851L6.59921 7.4541L4.26465 16.8751L0.827148 16.0387Z" stroke="url(#paint0_linear_606_8742)" stroke-width="1.1489" stroke-linecap="round" stroke-linejoin="round"/>
<path d="M6.305 18.6397L4.25537 16.8934L6.59912 7.45408L9.2278 6.86584C10.0308 6.6856 10.8648 6.69504 11.6635 6.89342L18.566 8.63055C18.7352 8.67246 18.8944 8.74736 19.0346 8.85097C19.1747 8.95458 19.293 9.08485 19.3827 9.2343C19.4724 9.38374 19.5316 9.54943 19.5571 9.72185C19.5826 9.89426 19.5737 10.07 19.5311 10.239C19.4464 10.5787 19.2305 10.8709 18.9308 11.0518C18.631 11.2327 18.2719 11.2874 17.9318 11.2041L14.0715 10.2482C13.8456 11.154 13.2699 11.9333 12.4706 12.4156C11.6714 12.898 10.7135 13.044 9.80684 12.8217L8.94287 12.6103" fill="white"/>
<path d="M6.305 18.6397L4.25537 16.8934L6.59912 7.45408L9.2278 6.86584C10.0308 6.6856 10.8648 6.69504 11.6635 6.89342L18.566 8.63055C18.7352 8.67246 18.8944 8.74736 19.0346 8.85097C19.1747 8.95458 19.293 9.08485 19.3827 9.2343C19.4724 9.38374 19.5316 9.54943 19.5571 9.72185C19.5826 9.89426 19.5737 10.07 19.5311 10.239C19.4464 10.5787 19.2305 10.8709 18.9308 11.0518C18.631 11.2327 18.2719 11.2874 17.9318 11.2041L14.0715 10.2482C13.8456 11.154 13.2699 11.9333 12.4706 12.4156C11.6714 12.898 10.7135 13.044 9.80684 12.8217L8.94287 12.6103" stroke="url(#paint1_linear_606_8742)" stroke-width="1.1489" stroke-linecap="round" stroke-linejoin="round"/>
</g>
<defs>
<linearGradient id="paint0_linear_606_8742" x1="14.9494" y1="5.8916" x2="14.9494" y2="24.3432" gradientUnits="userSpaceOnUse">
<stop stop-color="#1C98CB"/>
<stop offset="1" stop-color="#1B1464"/>
</linearGradient>
<linearGradient id="paint1_linear_606_8742" x1="11.9133" y1="6.7373" x2="11.9133" y2="18.6397" gradientUnits="userSpaceOnUse">
<stop stop-color="#1C98CB"/>
<stop offset="1" stop-color="#1B1464"/>
</linearGradient>
<clipPath id="clip0_606_8742">
<rect width="30" height="30" fill="white"/>
</clipPath>
</defs>
</svg>
