<svg width="30" height="30" viewBox="0 0 30 30" fill="none" xmlns="http://www.w3.org/2000/svg">
<path fill-rule="evenodd" clip-rule="evenodd" d="M22.5 7.5V22.5H7.5V7.5H22.5ZM13.8135 11.25H12.3526L9.57914 18.75H10.8971L11.4207 17.2838H14.7407L15.2531 18.75H16.6504L13.8135 11.25ZM18.9899 11.25H17.6773V18.75H18.9899V11.25ZM13.0719 12.5083L14.3794 16.25H11.7853L13.0719 12.5083ZM23.7501 18.75H26.25V21.25H23.75L23.7501 18.75ZM8.7501 23.75H11.25V26.25H8.74998L8.7501 23.75ZM13.7501 23.75H16.25V26.25H13.7501V23.75ZM8.74998 3.75H11.25V6.25002H8.74998V3.75ZM18.75 23.75H21.25V26.25H18.75V23.75ZM13.75 3.75H16.25V6.25002H13.75V3.75ZM18.75 3.75H21.25V6.25002H18.75V3.75ZM23.75 13.75H26.25V16.25H23.75V13.75ZM3.75 18.75H6.25002V21.25H3.75V18.75ZM23.75 8.74998H26.25V11.25H23.75V8.74998ZM3.75 13.75H6.25002V16.25H3.75V13.75ZM3.75 8.74998H6.25002V11.25H3.75V8.74998Z" fill="white"/>
</svg>
