<svg xmlns="http://www.w3.org/2000/svg" width="65" height="62" fill="none"><path fill="url(#a)" d="M62.302 4.749c-1.377 0-2.499-1.066-2.499-2.375S60.925 0 62.302 0C63.678 0 64.8 1.066 64.8 2.374c0 1.317-1.122 2.375-2.498 2.375m2.498 11.83c0-1.308-1.122-2.373-2.498-2.373s-2.499 1.066-2.499 2.374 1.122 2.374 2.499 2.374c1.376 0 2.498-1.058 2.498-2.374m0 14.206c0-1.308-1.122-2.374-2.498-2.374s-2.499 1.066-2.499 2.374 1.122 2.375 2.499 2.375c1.376.008 2.498-1.058 2.498-2.375M64.8 45c0-1.308-1.122-2.374-2.498-2.374s-2.499 1.066-2.499 2.374 1.122 2.374 2.499 2.374c1.376 0 2.498-1.066 2.498-2.374m0 14.205c0-1.308-1.122-2.374-2.498-2.374s-2.499 1.066-2.499 2.374 1.122 2.375 2.499 2.375c1.376 0 2.498-1.066 2.498-2.375M49.851 2.374C49.851 1.066 48.73 0 47.353 0s-2.499 1.066-2.499 2.374 1.122 2.375 2.499 2.375S49.85 3.69 49.85 2.374m0 14.206c0-1.308-1.121-2.374-2.498-2.374s-2.499 1.066-2.499 2.374 1.122 2.374 2.499 2.374 2.498-1.058 2.498-2.374m0 14.205c0-1.308-1.121-2.374-2.498-2.374s-2.499 1.066-2.499 2.374 1.122 2.375 2.499 2.375c1.377.008 2.498-1.058 2.498-2.375m0 14.214c0-1.308-1.121-2.374-2.498-2.374s-2.499 1.066-2.499 2.374 1.122 2.374 2.499 2.374S49.85 46.307 49.85 45m0 14.205c0-1.308-1.121-2.374-2.498-2.374s-2.499 1.066-2.499 2.374 1.122 2.375 2.499 2.375 2.498-1.066 2.498-2.375M34.894 2.374C34.894 1.066 33.773 0 32.396 0s-2.499 1.066-2.499 2.374S31.02 4.75 32.396 4.75c1.385 0 2.498-1.058 2.498-2.375m0 14.206c0-1.308-1.121-2.374-2.498-2.374s-2.499 1.066-2.499 2.374 1.122 2.374 2.499 2.374c1.385 0 2.498-1.058 2.498-2.374m0 14.205c0-1.308-1.121-2.374-2.498-2.374s-2.499 1.066-2.499 2.374 1.122 2.375 2.499 2.375c1.385.008 2.498-1.058 2.498-2.375m0 14.214c0-1.308-1.121-2.374-2.498-2.374s-2.499 1.066-2.499 2.374 1.122 2.374 2.499 2.374c1.385 0 2.498-1.066 2.498-2.374m0 14.205c0-1.308-1.121-2.374-2.498-2.374s-2.499 1.066-2.499 2.374 1.122 2.375 2.499 2.375c1.385 0 2.498-1.066 2.498-2.375M19.946 2.374C19.946 1.066 18.824 0 17.447 0S14.95 1.066 14.95 2.374 16.07 4.75 17.447 4.75c1.385 0 2.499-1.058 2.499-2.375m0 14.206c0-1.308-1.122-2.374-2.499-2.374s-2.498 1.066-2.498 2.374 1.121 2.374 2.498 2.374c1.385 0 2.499-1.058 2.499-2.374m0 14.205c0-1.308-1.122-2.374-2.499-2.374s-2.498 1.066-2.498 2.374 1.121 2.375 2.498 2.375c1.385.008 2.499-1.058 2.499-2.375m0 14.214c0-1.308-1.122-2.374-2.499-2.374s-2.498 1.066-2.498 2.374 1.121 2.374 2.498 2.374c1.385 0 2.499-1.066 2.499-2.374m0 14.205c0-1.308-1.122-2.374-2.499-2.374s-2.498 1.066-2.498 2.374 1.121 2.375 2.498 2.375c1.385 0 2.499-1.066 2.499-2.375M4.997 2.374C4.997 1.066 3.875 0 2.499 0S0 1.066 0 2.374 1.122 4.75 2.499 4.75c1.376 0 2.498-1.058 2.498-2.375m0 14.206c0-1.308-1.122-2.374-2.498-2.374S0 15.272 0 16.58s1.122 2.374 2.499 2.374c1.376 0 2.498-1.058 2.498-2.374m0 14.205c0-1.308-1.122-2.374-2.498-2.374S0 29.477 0 30.785s1.122 2.375 2.499 2.375c1.376 0 2.498-1.058 2.498-2.375m0 14.214c0-1.308-1.122-2.374-2.498-2.374S0 43.69 0 44.999s1.122 2.374 2.499 2.374c1.376 0 2.498-1.066 2.498-2.374m0 14.205c0-1.308-1.122-2.374-2.498-2.374S0 57.896 0 59.204s1.122 2.375 2.499 2.375c1.376 0 2.498-1.066 2.498-2.375"/><defs><linearGradient id="a" x1="0" x2="65" y1="0" y2="62" gradientUnits="userSpaceOnUse"><stop stop-color="#1C98CB"/><stop offset="1" stop-color="#1B1464"/></linearGradient></defs></svg>