<svg xmlns="http://www.w3.org/2000/svg" width="76" height="75" fill="none"><path fill="url(#a)" d="M73.07 5.784c-1.615 0-2.93-1.299-2.93-2.892C70.14 1.298 71.454 0 73.07 0 74.684 0 76 1.298 76 2.892c0 1.603-1.316 2.892-2.93 2.892M76 20.194c0-1.594-1.316-2.892-2.93-2.892s-2.93 1.298-2.93 2.891c0 1.594 1.315 2.892 2.93 2.892 1.614 0 2.93-1.288 2.93-2.892m0 17.301c0-1.593-1.316-2.892-2.93-2.892s-2.93 1.299-2.93 2.892c0 1.594 1.315 2.892 2.93 2.892 1.614.01 2.93-1.289 2.93-2.892m0 17.312c0-1.594-1.316-2.892-2.93-2.892s-2.93 1.298-2.93 2.892 1.315 2.891 2.93 2.891c1.614 0 2.93-1.298 2.93-2.891m0 17.301c0-1.593-1.316-2.892-2.93-2.892s-2.93 1.299-2.93 2.892c0 1.594 1.315 2.892 2.93 2.892 1.614 0 2.93-1.298 2.93-2.892M58.468 2.892c0-1.594-1.316-2.892-2.93-2.892s-2.931 1.298-2.931 2.892 1.316 2.892 2.93 2.892 2.93-1.289 2.93-2.892m0 17.301c0-1.593-1.316-2.891-2.93-2.891s-2.931 1.298-2.931 2.891c0 1.594 1.316 2.892 2.93 2.892s2.93-1.288 2.93-2.892m0 17.302c0-1.593-1.316-2.892-2.93-2.892s-2.931 1.299-2.931 2.892c0 1.594 1.316 2.892 2.93 2.892 1.615.01 2.93-1.289 2.93-2.892m0 17.312c0-1.594-1.316-2.892-2.93-2.892s-2.931 1.298-2.931 2.892 1.316 2.891 2.93 2.891 2.93-1.298 2.93-2.891m0 17.301c0-1.593-1.316-2.892-2.93-2.892s-2.931 1.299-2.931 2.892c0 1.594 1.316 2.892 2.93 2.892s2.93-1.298 2.93-2.892M40.925 2.892C40.925 1.298 39.61 0 37.995 0s-2.93 1.298-2.93 2.892 1.315 2.892 2.93 2.892c1.625 0 2.93-1.289 2.93-2.892m0 17.301c0-1.593-1.315-2.891-2.93-2.891s-2.93 1.298-2.93 2.891c0 1.594 1.315 2.892 2.93 2.892 1.625 0 2.93-1.288 2.93-2.892m0 17.302c0-1.593-1.315-2.892-2.93-2.892s-2.93 1.299-2.93 2.892c0 1.594 1.315 2.892 2.93 2.892a2.897 2.897 0 0 0 2.93-2.892m0 17.312c0-1.594-1.315-2.892-2.93-2.892s-2.93 1.298-2.93 2.892 1.315 2.891 2.93 2.891c1.625 0 2.93-1.298 2.93-2.891m0 17.301c0-1.593-1.315-2.892-2.93-2.892s-2.93 1.299-2.93 2.892c0 1.594 1.315 2.892 2.93 2.892 1.625 0 2.93-1.298 2.93-2.892M23.393 2.892c0-1.594-1.316-2.892-2.93-2.892s-2.93 1.298-2.93 2.892 1.315 2.892 2.93 2.892c1.624 0 2.93-1.289 2.93-2.892m0 17.301c0-1.593-1.316-2.891-2.93-2.891s-2.93 1.298-2.93 2.891c0 1.594 1.315 2.892 2.93 2.892 1.624 0 2.93-1.288 2.93-2.892m0 17.302c0-1.593-1.316-2.892-2.93-2.892s-2.93 1.299-2.93 2.892c0 1.594 1.315 2.892 2.93 2.892a2.897 2.897 0 0 0 2.93-2.892m0 17.312c0-1.594-1.316-2.892-2.93-2.892s-2.93 1.298-2.93 2.892 1.315 2.891 2.93 2.891c1.624 0 2.93-1.298 2.93-2.891m0 17.301c0-1.593-1.316-2.892-2.93-2.892s-2.93 1.299-2.93 2.892c0 1.594 1.315 2.892 2.93 2.892 1.624 0 2.93-1.298 2.93-2.892M5.861 2.892C5.86 1.298 4.545 0 2.93 0S0 1.298 0 2.892s1.316 2.892 2.93 2.892 2.93-1.289 2.93-2.892m0 17.301c0-1.593-1.316-2.891-2.93-2.891S0 18.6 0 20.193c0 1.594 1.316 2.892 2.93 2.892s2.93-1.288 2.93-2.892m0 17.302c0-1.593-1.316-2.892-2.93-2.892S0 35.902 0 37.495c0 1.594 1.316 2.892 2.93 2.892s2.93-1.289 2.93-2.892m0 17.312c0-1.594-1.316-2.892-2.93-2.892S0 53.213 0 54.807s1.316 2.891 2.93 2.891 2.93-1.298 2.93-2.891m0 17.301c0-1.593-1.316-2.892-2.93-2.892S0 70.515 0 72.108C0 73.702 1.316 75 2.93 75s2.93-1.298 2.93-2.892" opacity=".3"/><defs><linearGradient id="a" x1="38" x2="38" y1="0" y2="75" gradientUnits="userSpaceOnUse"><stop stop-color="#1C98CB"/><stop offset="1" stop-color="#1B1464"/></linearGradient></defs></svg>