<svg width="31" height="31" viewBox="0 0 31 31" fill="none" xmlns="http://www.w3.org/2000/svg">
<path d="M18.225 14.875C18.2 15.0875 18.175 15.2875 18.175 15.5C18.175 15.7125 18.2 15.9125 18.225 16.125L16.875 17.1375C16.75 17.225 16.75 17.375 16.8 17.5375L18.0875 19.7C18.1625 19.8375 18.3375 19.875 18.475 19.8375L20.075 19.2125C20.4125 19.4625 20.775 19.6625 21.1625 19.825L21.4125 21.4875C21.4125 21.6375 21.55 21.75 21.7125 21.75H24.25C24.4375 21.75 24.575 21.6375 24.6 21.4875L24.875 19.8375C25.2375 19.6875 25.6 19.4625 25.9375 19.25L27.5375 19.875C27.6875 19.9125 27.85 19.875 27.925 19.7125L29.2125 17.55C29.2875 17.375 29.25 17.2375 29.125 17.1375L27.775 16.125C27.8 15.9125 27.8125 15.7 27.8125 15.5C27.8125 15.2875 27.7875 15.0875 27.7625 14.875L29.125 13.85C29.25 13.7625 29.25 13.5875 29.2 13.45L27.9125 11.2875C27.8375 11.125 27.6625 11.125 27.525 11.125L25.925 11.75C25.5875 11.525 25.225 11.325 24.8375 11.1625L24.5875 9.5125C24.575 9.3625 24.4375 9.25 24.25 9.25H21.7C21.5375 9.25 21.4 9.3625 21.3875 9.5125L21.125 11.1625C20.75 11.3125 20.3875 11.5375 20.05 11.75L18.45 11.125C18.3 11.0875 18.1375 11.125 18.0625 11.2875L16.75 13.45C16.7 13.5875 16.75 13.75 16.85 13.85L18.225 14.875ZM23 13.3125C24.25 13.3125 25.25 14.2875 25.25 15.5C25.25 16.7125 24.25 17.6875 23 17.6875C21.75 17.6875 20.75 16.7125 20.75 15.5C20.75 14.2875 21.75 13.3125 23 13.3125ZM9.24999 29.25H21.75C22.413 29.25 23.0489 28.9866 23.5178 28.5178C23.9866 28.0489 24.25 27.413 24.25 26.75V23H21.75V25.5H9.24999V5.5H21.75V8H24.25V4.25C24.25 3.58696 23.9866 2.95107 23.5178 2.48223C23.0489 2.01339 22.413 1.75 21.75 1.75H9.24999C8.58695 1.75 7.95107 2.01339 7.48223 2.48223C7.01339 2.95107 6.74999 3.58696 6.74999 4.25V26.75C6.74999 27.413 7.01339 28.0489 7.48223 28.5178C7.95107 28.9866 8.58695 29.25 9.24999 29.25Z" fill="white"/>
</svg>
