<svg xmlns="http://www.w3.org/2000/svg" width="324" height="362" fill="none"><path fill="url(#a)" d="M323.874 225.857a70 70 0 0 1-30.269 59.272l-92.55 63.758a70 70 0 0 1-71.549 4.696l-88.183-45.034a70 70 0 0 1-38.145-60.715L.567 135.478a70 70 0 0 1 30.27-59.271l92.549-63.758a70 70 0 0 1 71.549-4.696l88.183 45.034a70 70 0 0 1 38.145 60.714z"/><defs><linearGradient id="a" x1="-.312" x2="324.753" y1="97.665" y2="263.671" gradientUnits="userSpaceOnUse"><stop stop-color="#1C98CB"/><stop offset="1" stop-color="#1B1464"/></linearGradient></defs></svg>