<svg width="31" height="31" viewBox="0 0 31 31" fill="none" xmlns="http://www.w3.org/2000/svg">
<path d="M29.25 3H1.75V23H15.21C15.0753 21.2479 15.4951 19.4978 16.41 17.9975H4.25V5.4975H26.75V14.535C27.6671 14.9025 28.5131 15.427 29.25 16.085V3ZM4.25 25.5H15.785C16.1525 26.4171 16.677 27.2631 17.335 28H4.25V25.5Z" fill="white"/>
<path d="M24.8752 17.22V15.5H22.3752V17.22C21.4952 17.4477 20.694 17.911 20.0577 18.56L18.5664 17.6987L17.3164 19.8638L18.8064 20.7238C18.563 21.5997 18.563 22.5253 18.8064 23.4012L17.3164 24.2613L18.5664 26.4262L20.0577 25.565C20.694 26.214 21.4952 26.6773 22.3752 26.905V28.625H24.8752V26.905C25.7551 26.6773 26.5563 26.214 27.1927 25.565L28.6827 26.4262L29.9327 24.2613L28.4439 23.4012C28.6873 22.5253 28.6873 21.5997 28.4439 20.7238L29.9327 19.8638L28.6827 17.6987L27.1927 18.5587C26.5562 17.9102 25.755 17.4474 24.8752 17.22ZM21.4814 20.775C21.7035 20.4048 22.0177 20.0984 22.3934 19.8857C22.7691 19.673 23.1934 19.5612 23.6252 19.5612C24.0569 19.5612 24.4812 19.673 24.8569 19.8857C25.2326 20.0984 25.5468 20.4048 25.7689 20.775L25.8139 20.8538C26.0127 21.2125 26.1252 21.6238 26.1252 22.0625C26.1252 22.5 26.0127 22.9125 25.8139 23.2712L25.7677 23.35C25.5455 23.7199 25.2313 24.026 24.8558 24.2385C24.4802 24.4511 24.056 24.5627 23.6245 24.5627C23.193 24.5627 22.7689 24.4511 22.3933 24.2385C22.0177 24.026 21.7036 23.7199 21.4814 23.35L21.4352 23.2712C21.2313 22.901 21.1247 22.4851 21.1252 22.0625C21.1247 21.6399 21.2313 21.224 21.4352 20.8538L21.4814 20.775Z" fill="white"/>
</svg>
